<mxfile host="app.diagrams.net" modified="2020-09-22T08:31:06.756Z" agent="5.0 (Windows NT 10.0; Win64; x64) AppleWebKit/537.36 (KHTML, like Gecko) Chrome/85.0.4183.102 Safari/537.36" etag="CAGrnECQDHAEU5qp8hW9" version="13.7.3" type="github">
  <diagram id="U6RHtBQ9fCyGon2_SxzG" name="Page-1">
    <mxGraphModel dx="920" dy="554" grid="1" gridSize="10" guides="1" tooltips="1" connect="1" arrows="1" fold="1" page="1" pageScale="1" pageWidth="827" pageHeight="1169" math="0" shadow="0">
      <root>
        <mxCell id="0" />
        <mxCell id="1" parent="0" />
        <mxCell id="E-XlT1YLTzaVHpHIz-wI-18" value="项目Wx" style="html=1;aspect=fixed;strokeColor=none;shadow=0;align=center;verticalAlign=top;fillColor=#3B8DF1;shape=mxgraph.gcp2.phone_android;fontFamily=Helvetica;" parent="1" vertex="1">
          <mxGeometry x="140" y="160" width="33.6" height="60" as="geometry" />
        </mxCell>
        <mxCell id="E-XlT1YLTzaVHpHIz-wI-19" value="项目Web" style="html=1;aspect=fixed;strokeColor=none;shadow=0;align=center;verticalAlign=top;fillColor=#3B8DF1;shape=mxgraph.gcp2.cloud_computer" parent="1" vertex="1">
          <mxGeometry x="270" y="160" width="68.18" height="60" as="geometry" />
        </mxCell>
        <mxCell id="E-XlT1YLTzaVHpHIz-wI-20" value="&lt;font color=&quot;#000000&quot;&gt;Nginx/PHP&lt;/font&gt;" style="html=1;fillColor=#5184F3;strokeColor=none;verticalAlign=top;labelPosition=center;verticalLabelPosition=bottom;align=center;spacingTop=-6;fontSize=11;fontStyle=1;fontColor=#999999;shape=mxgraph.gcp2.hexIcon;prIcon=compute_engine" parent="1" vertex="1">
          <mxGeometry x="204" y="280" width="66" height="58.5" as="geometry" />
        </mxCell>
        <mxCell id="E-XlT1YLTzaVHpHIz-wI-21" value="RDS" style="html=1;fillColor=#5184F3;strokeColor=none;verticalAlign=top;labelPosition=center;verticalLabelPosition=bottom;align=center;spacingTop=-6;fontSize=11;fontStyle=1;shape=mxgraph.gcp2.hexIcon;prIcon=cloud_sql" parent="1" vertex="1">
          <mxGeometry x="348" y="280" width="66" height="58.5" as="geometry" />
        </mxCell>
        <mxCell id="E-XlT1YLTzaVHpHIz-wI-24" value="" style="edgeStyle=orthogonalEdgeStyle;fontSize=12;html=1;endArrow=blockThin;endFill=1;rounded=0;strokeWidth=2;endSize=4;startSize=4;dashed=0;strokeColor=#4284F3;exitX=0.455;exitY=1.005;exitDx=0;exitDy=0;exitPerimeter=0;entryX=0.5;entryY=0.16;entryDx=0;entryDy=0;entryPerimeter=0;" parent="1" source="E-XlT1YLTzaVHpHIz-wI-18" target="E-XlT1YLTzaVHpHIz-wI-20" edge="1">
          <mxGeometry width="100" relative="1" as="geometry">
            <mxPoint x="150" y="240" as="sourcePoint" />
            <mxPoint x="250" y="240" as="targetPoint" />
          </mxGeometry>
        </mxCell>
        <mxCell id="E-XlT1YLTzaVHpHIz-wI-25" value="" style="edgeStyle=orthogonalEdgeStyle;fontSize=12;html=1;endArrow=blockThin;endFill=1;rounded=0;strokeWidth=2;endSize=4;startSize=4;dashed=0;strokeColor=#4284F3;exitX=0.516;exitY=1.033;exitDx=0;exitDy=0;exitPerimeter=0;entryX=0.5;entryY=0.16;entryDx=0;entryDy=0;entryPerimeter=0;" parent="1" source="E-XlT1YLTzaVHpHIz-wI-19" target="E-XlT1YLTzaVHpHIz-wI-20" edge="1">
          <mxGeometry width="100" relative="1" as="geometry">
            <mxPoint x="320" y="240" as="sourcePoint" />
            <mxPoint x="420" y="240" as="targetPoint" />
          </mxGeometry>
        </mxCell>
        <mxCell id="E-XlT1YLTzaVHpHIz-wI-28" value="" style="edgeStyle=orthogonalEdgeStyle;fontSize=12;html=1;endArrow=blockThin;endFill=1;rounded=0;strokeWidth=2;endSize=4;startSize=4;dashed=0;strokeColor=#4284F3;exitX=0.825;exitY=0.5;exitDx=0;exitDy=0;exitPerimeter=0;entryX=0.175;entryY=0.5;entryDx=0;entryDy=0;entryPerimeter=0;" parent="1" source="E-XlT1YLTzaVHpHIz-wI-20" target="E-XlT1YLTzaVHpHIz-wI-21" edge="1">
          <mxGeometry width="100" relative="1" as="geometry">
            <mxPoint x="260" y="300" as="sourcePoint" />
            <mxPoint x="360" y="300" as="targetPoint" />
          </mxGeometry>
        </mxCell>
        <mxCell id="E-XlT1YLTzaVHpHIz-wI-43" value="租赁Wx" style="html=1;aspect=fixed;strokeColor=none;shadow=0;align=center;verticalAlign=top;fillColor=#3B8DF1;shape=mxgraph.gcp2.phone_android;fontFamily=Helvetica;" parent="1" vertex="1">
          <mxGeometry x="440" y="160" width="33.6" height="60" as="geometry" />
        </mxCell>
        <mxCell id="E-XlT1YLTzaVHpHIz-wI-44" value="租赁Web" style="html=1;aspect=fixed;strokeColor=none;shadow=0;align=center;verticalAlign=top;fillColor=#3B8DF1;shape=mxgraph.gcp2.cloud_computer" parent="1" vertex="1">
          <mxGeometry x="570" y="160" width="68.18" height="60" as="geometry" />
        </mxCell>
        <mxCell id="E-XlT1YLTzaVHpHIz-wI-45" value="&lt;font color=&quot;#000000&quot;&gt;Nginx/PHP&lt;/font&gt;" style="html=1;fillColor=#5184F3;strokeColor=none;verticalAlign=top;labelPosition=center;verticalLabelPosition=bottom;align=center;spacingTop=-6;fontSize=11;fontStyle=1;fontColor=#999999;shape=mxgraph.gcp2.hexIcon;prIcon=compute_engine" parent="1" vertex="1">
          <mxGeometry x="504" y="280" width="66" height="58.5" as="geometry" />
        </mxCell>
        <mxCell id="E-XlT1YLTzaVHpHIz-wI-46" value="RDS" style="html=1;fillColor=#5184F3;strokeColor=none;verticalAlign=top;labelPosition=center;verticalLabelPosition=bottom;align=center;spacingTop=-6;fontSize=11;fontStyle=1;shape=mxgraph.gcp2.hexIcon;prIcon=cloud_sql" parent="1" vertex="1">
          <mxGeometry x="648" y="280" width="66" height="58.5" as="geometry" />
        </mxCell>
        <mxCell id="E-XlT1YLTzaVHpHIz-wI-47" value="" style="edgeStyle=orthogonalEdgeStyle;fontSize=12;html=1;endArrow=blockThin;endFill=1;rounded=0;strokeWidth=2;endSize=4;startSize=4;dashed=0;strokeColor=#4284F3;exitX=0.455;exitY=1.005;exitDx=0;exitDy=0;exitPerimeter=0;entryX=0.5;entryY=0.16;entryDx=0;entryDy=0;entryPerimeter=0;" parent="1" source="E-XlT1YLTzaVHpHIz-wI-43" target="E-XlT1YLTzaVHpHIz-wI-45" edge="1">
          <mxGeometry width="100" relative="1" as="geometry">
            <mxPoint x="450" y="240" as="sourcePoint" />
            <mxPoint x="550" y="240" as="targetPoint" />
          </mxGeometry>
        </mxCell>
        <mxCell id="E-XlT1YLTzaVHpHIz-wI-48" value="" style="edgeStyle=orthogonalEdgeStyle;fontSize=12;html=1;endArrow=blockThin;endFill=1;rounded=0;strokeWidth=2;endSize=4;startSize=4;dashed=0;strokeColor=#4284F3;exitX=0.516;exitY=1.033;exitDx=0;exitDy=0;exitPerimeter=0;entryX=0.5;entryY=0.16;entryDx=0;entryDy=0;entryPerimeter=0;" parent="1" source="E-XlT1YLTzaVHpHIz-wI-44" target="E-XlT1YLTzaVHpHIz-wI-45" edge="1">
          <mxGeometry width="100" relative="1" as="geometry">
            <mxPoint x="620" y="240" as="sourcePoint" />
            <mxPoint x="720" y="240" as="targetPoint" />
          </mxGeometry>
        </mxCell>
        <mxCell id="E-XlT1YLTzaVHpHIz-wI-49" value="" style="edgeStyle=orthogonalEdgeStyle;fontSize=12;html=1;endArrow=blockThin;endFill=1;rounded=0;strokeWidth=2;endSize=4;startSize=4;dashed=0;strokeColor=#4284F3;exitX=0.825;exitY=0.5;exitDx=0;exitDy=0;exitPerimeter=0;entryX=0.175;entryY=0.5;entryDx=0;entryDy=0;entryPerimeter=0;" parent="1" source="E-XlT1YLTzaVHpHIz-wI-45" target="E-XlT1YLTzaVHpHIz-wI-46" edge="1">
          <mxGeometry width="100" relative="1" as="geometry">
            <mxPoint x="560" y="300" as="sourcePoint" />
            <mxPoint x="660" y="300" as="targetPoint" />
          </mxGeometry>
        </mxCell>
        <mxCell id="E-XlT1YLTzaVHpHIz-wI-81" style="edgeStyle=orthogonalEdgeStyle;rounded=0;orthogonalLoop=1;jettySize=auto;html=1;exitX=0.25;exitY=0.33;exitDx=0;exitDy=0;exitPerimeter=0;entryX=0.5;entryY=0.16;entryDx=0;entryDy=0;entryPerimeter=0;fontFamily=Helvetica;fontColor=#000000;fillColor=#d5e8d4;strokeColor=#82b366;" parent="1" source="E-XlT1YLTzaVHpHIz-wI-50" target="E-XlT1YLTzaVHpHIz-wI-80" edge="1">
          <mxGeometry relative="1" as="geometry" />
        </mxCell>
        <mxCell id="E-XlT1YLTzaVHpHIz-wI-83" style="edgeStyle=orthogonalEdgeStyle;rounded=0;orthogonalLoop=1;jettySize=auto;html=1;exitX=0.75;exitY=0.33;exitDx=0;exitDy=0;exitPerimeter=0;entryX=0.5;entryY=0.16;entryDx=0;entryDy=0;entryPerimeter=0;fontFamily=Helvetica;fontColor=#000000;fillColor=#d5e8d4;strokeColor=#82b366;" parent="1" source="E-XlT1YLTzaVHpHIz-wI-50" target="E-XlT1YLTzaVHpHIz-wI-82" edge="1">
          <mxGeometry relative="1" as="geometry" />
        </mxCell>
        <mxCell id="E-XlT1YLTzaVHpHIz-wI-50" value="&lt;font color=&quot;#000000&quot;&gt;Gateway&lt;/font&gt;" style="html=1;fillColor=#5184F3;strokeColor=none;verticalAlign=top;labelPosition=center;verticalLabelPosition=bottom;align=center;spacingTop=-6;fontSize=11;fontStyle=1;fontColor=#999999;shape=mxgraph.gcp2.hexIcon;prIcon=cloud_cdn" parent="1" vertex="1">
          <mxGeometry x="381" y="440" width="66" height="58.5" as="geometry" />
        </mxCell>
        <mxCell id="E-XlT1YLTzaVHpHIz-wI-51" value="&lt;font color=&quot;#000000&quot;&gt;DataBriderService&lt;/font&gt;" style="html=1;fillColor=#5184F3;strokeColor=none;verticalAlign=top;labelPosition=center;verticalLabelPosition=bottom;align=center;spacingTop=-6;fontSize=11;fontStyle=1;fontColor=#999999;shape=mxgraph.gcp2.hexIcon;prIcon=compute_engine" parent="1" vertex="1">
          <mxGeometry x="290" y="560" width="66" height="60" as="geometry" />
        </mxCell>
        <mxCell id="E-XlT1YLTzaVHpHIz-wI-52" value="&lt;font color=&quot;#000000&quot;&gt;ResourceService&lt;/font&gt;" style="html=1;fillColor=#5184F3;strokeColor=none;verticalAlign=top;labelPosition=center;verticalLabelPosition=bottom;align=center;spacingTop=-6;fontSize=11;fontStyle=1;fontColor=#999999;shape=mxgraph.gcp2.hexIcon;prIcon=compute_engine" parent="1" vertex="1">
          <mxGeometry x="400" y="560.75" width="66" height="58.5" as="geometry" />
        </mxCell>
        <mxCell id="E-XlT1YLTzaVHpHIz-wI-53" value="&lt;font color=&quot;#000000&quot;&gt;EventService&lt;/font&gt;" style="html=1;fillColor=#5184F3;strokeColor=none;verticalAlign=top;labelPosition=center;verticalLabelPosition=bottom;align=center;spacingTop=-6;fontSize=11;fontStyle=1;fontColor=#999999;shape=mxgraph.gcp2.hexIcon;prIcon=compute_engine" parent="1" vertex="1">
          <mxGeometry x="490" y="700" width="66" height="58.5" as="geometry" />
        </mxCell>
        <mxCell id="E-XlT1YLTzaVHpHIz-wI-54" value="&lt;font color=&quot;#000000&quot;&gt;MachineService&lt;/font&gt;" style="html=1;fillColor=#5184F3;strokeColor=none;verticalAlign=top;labelPosition=center;verticalLabelPosition=bottom;align=center;spacingTop=-6;fontSize=11;fontStyle=1;fontColor=#999999;shape=mxgraph.gcp2.hexIcon;prIcon=compute_engine" parent="1" vertex="1">
          <mxGeometry x="290" y="700" width="66" height="58.5" as="geometry" />
        </mxCell>
        <mxCell id="E-XlT1YLTzaVHpHIz-wI-62" value="" style="edgeStyle=orthogonalEdgeStyle;fontSize=12;html=1;endArrow=blockThin;endFill=1;rounded=0;strokeWidth=2;endSize=4;startSize=4;dashed=0;strokeColor=#82b366;exitX=0.5;exitY=0.84;exitDx=0;exitDy=0;exitPerimeter=0;entryX=0.5;entryY=0.16;entryDx=0;entryDy=0;entryPerimeter=0;fillColor=#d5e8d4;" parent="1" source="E-XlT1YLTzaVHpHIz-wI-51" target="E-XlT1YLTzaVHpHIz-wI-54" edge="1">
          <mxGeometry width="100" relative="1" as="geometry">
            <mxPoint x="350" y="670" as="sourcePoint" />
            <mxPoint x="450" y="670" as="targetPoint" />
          </mxGeometry>
        </mxCell>
        <mxCell id="E-XlT1YLTzaVHpHIz-wI-63" value="" style="edgeStyle=orthogonalEdgeStyle;fontSize=12;html=1;endArrow=blockThin;endFill=1;rounded=0;strokeWidth=2;endSize=4;startSize=4;dashed=0;strokeColor=#82b366;entryX=0.175;entryY=0.5;entryDx=0;entryDy=0;entryPerimeter=0;fillColor=#d5e8d4;" parent="1" target="E-XlT1YLTzaVHpHIz-wI-52" edge="1">
          <mxGeometry width="100" relative="1" as="geometry">
            <mxPoint x="340" y="590" as="sourcePoint" />
            <mxPoint x="440" y="590" as="targetPoint" />
          </mxGeometry>
        </mxCell>
        <mxCell id="E-XlT1YLTzaVHpHIz-wI-65" value="" style="edgeStyle=orthogonalEdgeStyle;fontSize=12;html=1;endArrow=blockThin;endFill=1;rounded=0;strokeWidth=2;endSize=4;startSize=4;dashed=0;strokeColor=#82b366;entryX=0.5;entryY=0.16;entryDx=0;entryDy=0;entryPerimeter=0;exitX=0.5;exitY=0.84;exitDx=0;exitDy=0;exitPerimeter=0;fillColor=#d5e8d4;" parent="1" source="E-XlT1YLTzaVHpHIz-wI-50" target="E-XlT1YLTzaVHpHIz-wI-52" edge="1">
          <mxGeometry width="100" relative="1" as="geometry">
            <mxPoint x="470" y="530" as="sourcePoint" />
            <mxPoint x="570" y="530" as="targetPoint" />
          </mxGeometry>
        </mxCell>
        <mxCell id="E-XlT1YLTzaVHpHIz-wI-66" value="" style="edgeStyle=orthogonalEdgeStyle;fontSize=12;html=1;endArrow=blockThin;endFill=1;rounded=0;strokeWidth=2;endSize=4;startSize=4;dashed=0;strokeColor=#82b366;exitX=0.825;exitY=0.5;exitDx=0;exitDy=0;exitPerimeter=0;entryX=0.5;entryY=0.339;entryDx=0;entryDy=0;entryPerimeter=0;fillColor=#d5e8d4;" parent="1" source="E-XlT1YLTzaVHpHIz-wI-50" target="E-XlT1YLTzaVHpHIz-wI-53" edge="1">
          <mxGeometry width="100" relative="1" as="geometry">
            <mxPoint x="430" y="640" as="sourcePoint" />
            <mxPoint x="530" y="640" as="targetPoint" />
          </mxGeometry>
        </mxCell>
        <mxCell id="E-XlT1YLTzaVHpHIz-wI-67" value="" style="edgeStyle=orthogonalEdgeStyle;fontSize=12;html=1;endArrow=blockThin;endFill=1;rounded=0;strokeWidth=2;endSize=4;startSize=4;dashed=0;strokeColor=#82b366;exitX=0.175;exitY=0.5;exitDx=0;exitDy=0;exitPerimeter=0;entryX=0.5;entryY=0.16;entryDx=0;entryDy=0;entryPerimeter=0;fillColor=#d5e8d4;" parent="1" source="E-XlT1YLTzaVHpHIz-wI-50" target="E-XlT1YLTzaVHpHIz-wI-51" edge="1">
          <mxGeometry width="100" relative="1" as="geometry">
            <mxPoint x="300" y="540" as="sourcePoint" />
            <mxPoint x="400" y="540" as="targetPoint" />
          </mxGeometry>
        </mxCell>
        <mxCell id="E-XlT1YLTzaVHpHIz-wI-70" value="" style="edgeStyle=orthogonalEdgeStyle;fontSize=12;html=1;endArrow=blockThin;endFill=1;rounded=0;strokeWidth=2;endSize=4;startSize=4;dashed=0;strokeColor=#4284F3;exitX=0.5;exitY=0.84;exitDx=0;exitDy=0;exitPerimeter=0;entryX=0.5;entryY=0.16;entryDx=0;entryDy=0;entryPerimeter=0;" parent="1" source="E-XlT1YLTzaVHpHIz-wI-20" target="E-XlT1YLTzaVHpHIz-wI-50" edge="1">
          <mxGeometry width="100" relative="1" as="geometry">
            <mxPoint x="210" y="400" as="sourcePoint" />
            <mxPoint x="310" y="400" as="targetPoint" />
            <Array as="points">
              <mxPoint x="237" y="390" />
              <mxPoint x="414" y="390" />
            </Array>
          </mxGeometry>
        </mxCell>
        <mxCell id="E-XlT1YLTzaVHpHIz-wI-72" value="" style="edgeStyle=orthogonalEdgeStyle;fontSize=12;html=1;endArrow=blockThin;endFill=1;rounded=0;strokeWidth=2;endSize=4;startSize=4;dashed=0;strokeColor=#4284F3;exitX=0.5;exitY=0.84;exitDx=0;exitDy=0;exitPerimeter=0;entryX=0.5;entryY=0.16;entryDx=0;entryDy=0;entryPerimeter=0;" parent="1" source="E-XlT1YLTzaVHpHIz-wI-45" target="E-XlT1YLTzaVHpHIz-wI-50" edge="1">
          <mxGeometry width="100" relative="1" as="geometry">
            <mxPoint x="540" y="400" as="sourcePoint" />
            <mxPoint x="640" y="400" as="targetPoint" />
            <Array as="points">
              <mxPoint x="537" y="390" />
              <mxPoint x="414" y="390" />
            </Array>
          </mxGeometry>
        </mxCell>
        <mxCell id="E-XlT1YLTzaVHpHIz-wI-73" value="&lt;font color=&quot;#000000&quot;&gt;Data Gateway&lt;/font&gt;" style="html=1;fillColor=#5184F3;strokeColor=none;verticalAlign=top;labelPosition=center;verticalLabelPosition=bottom;align=center;spacingTop=-6;fontSize=11;fontStyle=1;fontColor=#999999;shape=mxgraph.gcp2.hexIcon;prIcon=cloud_cdn" parent="1" vertex="1">
          <mxGeometry x="374" y="860" width="66" height="58.5" as="geometry" />
        </mxCell>
        <mxCell id="E-XlT1YLTzaVHpHIz-wI-74" value="" style="edgeStyle=orthogonalEdgeStyle;fontSize=12;html=1;endArrow=blockThin;endFill=1;rounded=0;strokeWidth=2;endSize=4;startSize=4;dashed=0;exitX=0.5;exitY=0.84;exitDx=0;exitDy=0;exitPerimeter=0;entryX=0.5;entryY=0.16;entryDx=0;entryDy=0;entryPerimeter=0;fillColor=#0050ef;strokeColor=#4284F3;" parent="1" source="E-XlT1YLTzaVHpHIz-wI-54" target="E-XlT1YLTzaVHpHIz-wI-73" edge="1">
          <mxGeometry width="100" relative="1" as="geometry">
            <mxPoint x="350" y="810" as="sourcePoint" />
            <mxPoint x="450" y="810" as="targetPoint" />
            <Array as="points">
              <mxPoint x="323" y="800" />
              <mxPoint x="407" y="800" />
            </Array>
          </mxGeometry>
        </mxCell>
        <mxCell id="E-XlT1YLTzaVHpHIz-wI-75" value="" style="edgeStyle=orthogonalEdgeStyle;fontSize=12;html=1;endArrow=blockThin;endFill=1;rounded=0;strokeWidth=2;endSize=4;startSize=4;dashed=0;strokeColor=#4284F3;exitX=0.5;exitY=0.84;exitDx=0;exitDy=0;exitPerimeter=0;entryX=0.5;entryY=0.16;entryDx=0;entryDy=0;entryPerimeter=0;" parent="1" source="E-XlT1YLTzaVHpHIz-wI-53" target="E-XlT1YLTzaVHpHIz-wI-73" edge="1">
          <mxGeometry width="100" relative="1" as="geometry">
            <mxPoint x="570" y="850" as="sourcePoint" />
            <mxPoint x="670" y="850" as="targetPoint" />
            <Array as="points">
              <mxPoint x="523" y="800" />
              <mxPoint x="407" y="800" />
            </Array>
          </mxGeometry>
        </mxCell>
        <mxCell id="E-XlT1YLTzaVHpHIz-wI-76" value="BigQuery" style="html=1;fillColor=#5184F3;strokeColor=none;verticalAlign=top;labelPosition=center;verticalLabelPosition=bottom;align=center;spacingTop=-6;fontSize=11;fontStyle=1;fontColor=#999999;shape=mxgraph.gcp2.hexIcon;prIcon=bigquery" parent="1" vertex="1">
          <mxGeometry x="290" y="960" width="66" height="58.5" as="geometry" />
        </mxCell>
        <mxCell id="E-XlT1YLTzaVHpHIz-wI-77" value="Cloud Data&#xa;Fusion" style="html=1;fillColor=#5184F3;strokeColor=none;verticalAlign=top;labelPosition=center;verticalLabelPosition=bottom;align=center;spacingTop=-6;fontSize=11;fontStyle=1;fontColor=#999999;shape=mxgraph.gcp2.hexIcon;prIcon=cloud_data_fusion" parent="1" vertex="1">
          <mxGeometry x="440" y="960" width="66" height="58.5" as="geometry" />
        </mxCell>
        <mxCell id="E-XlT1YLTzaVHpHIz-wI-78" value="" style="edgeStyle=orthogonalEdgeStyle;fontSize=12;html=1;endArrow=blockThin;endFill=1;rounded=0;strokeWidth=2;endSize=4;startSize=4;strokeColor=#34A853;dashed=0;exitX=0.5;exitY=0.84;exitDx=0;exitDy=0;exitPerimeter=0;entryX=0.5;entryY=0.16;entryDx=0;entryDy=0;entryPerimeter=0;" parent="1" source="E-XlT1YLTzaVHpHIz-wI-73" target="E-XlT1YLTzaVHpHIz-wI-76" edge="1">
          <mxGeometry width="100" relative="1" as="geometry">
            <mxPoint x="440" y="950" as="sourcePoint" />
            <mxPoint x="540" y="950" as="targetPoint" />
            <Array as="points">
              <mxPoint x="407" y="920" />
              <mxPoint x="323" y="920" />
            </Array>
          </mxGeometry>
        </mxCell>
        <mxCell id="E-XlT1YLTzaVHpHIz-wI-79" value="" style="edgeStyle=orthogonalEdgeStyle;fontSize=12;html=1;endArrow=blockThin;endFill=1;rounded=0;strokeWidth=2;endSize=4;startSize=4;strokeColor=#34A853;dashed=0;exitX=0.5;exitY=0.84;exitDx=0;exitDy=0;exitPerimeter=0;entryX=0.5;entryY=0.16;entryDx=0;entryDy=0;entryPerimeter=0;" parent="1" source="E-XlT1YLTzaVHpHIz-wI-73" target="E-XlT1YLTzaVHpHIz-wI-77" edge="1">
          <mxGeometry width="100" relative="1" as="geometry">
            <mxPoint x="530" y="930" as="sourcePoint" />
            <mxPoint x="630" y="930" as="targetPoint" />
            <Array as="points">
              <mxPoint x="407" y="920" />
              <mxPoint x="473" y="920" />
            </Array>
          </mxGeometry>
        </mxCell>
        <mxCell id="E-XlT1YLTzaVHpHIz-wI-86" style="edgeStyle=orthogonalEdgeStyle;rounded=0;orthogonalLoop=1;jettySize=auto;html=1;exitX=0.5;exitY=0.84;exitDx=0;exitDy=0;exitPerimeter=0;entryX=0.5;entryY=0.16;entryDx=0;entryDy=0;entryPerimeter=0;strokeColor=#82b366;fontFamily=Helvetica;fontColor=#000000;fillColor=#d5e8d4;" parent="1" source="E-XlT1YLTzaVHpHIz-wI-80" target="E-XlT1YLTzaVHpHIz-wI-54" edge="1">
          <mxGeometry relative="1" as="geometry">
            <Array as="points">
              <mxPoint x="207" y="650" />
              <mxPoint x="323" y="650" />
            </Array>
          </mxGeometry>
        </mxCell>
        <mxCell id="E-XlT1YLTzaVHpHIz-wI-80" value="&lt;font color=&quot;#000000&quot;&gt;DataBriderService&lt;/font&gt;" style="html=1;fillColor=#5184F3;strokeColor=none;verticalAlign=top;labelPosition=center;verticalLabelPosition=bottom;align=center;spacingTop=-6;fontSize=11;fontStyle=1;fontColor=#999999;shape=mxgraph.gcp2.hexIcon;prIcon=compute_engine" parent="1" vertex="1">
          <mxGeometry x="173.6" y="560" width="66" height="60" as="geometry" />
        </mxCell>
        <mxCell id="E-XlT1YLTzaVHpHIz-wI-84" style="edgeStyle=orthogonalEdgeStyle;rounded=0;orthogonalLoop=1;jettySize=auto;html=1;exitX=0.5;exitY=0.84;exitDx=0;exitDy=0;exitPerimeter=0;entryX=0.5;entryY=0.16;entryDx=0;entryDy=0;entryPerimeter=0;fontFamily=Helvetica;fontColor=#000000;fillColor=#1ba1e2;strokeColor=#4284F3;" parent="1" source="E-XlT1YLTzaVHpHIz-wI-82" target="E-XlT1YLTzaVHpHIz-wI-73" edge="1">
          <mxGeometry relative="1" as="geometry">
            <Array as="points">
              <mxPoint x="615" y="800" />
              <mxPoint x="407" y="800" />
            </Array>
          </mxGeometry>
        </mxCell>
        <mxCell id="E-XlT1YLTzaVHpHIz-wI-82" value="&lt;font color=&quot;#000000&quot;&gt;EventService&lt;/font&gt;" style="html=1;fillColor=#5184F3;strokeColor=none;verticalAlign=top;labelPosition=center;verticalLabelPosition=bottom;align=center;spacingTop=-6;fontSize=11;fontStyle=1;fontColor=#999999;shape=mxgraph.gcp2.hexIcon;prIcon=compute_engine" parent="1" vertex="1">
          <mxGeometry x="582" y="700" width="66" height="58.5" as="geometry" />
        </mxCell>
      </root>
    </mxGraphModel>
  </diagram>
</mxfile>
